<?xml version="1.0" encoding="UTF-8" standalone="no"?>
<svg
   xmlns:dc="http://purl.org/dc/elements/1.1/"
   xmlns:cc="http://creativecommons.org/ns#"
   xmlns:rdf="http://www.w3.org/1999/02/22-rdf-syntax-ns#"
   xmlns:svg="http://www.w3.org/2000/svg"
   xmlns="http://www.w3.org/2000/svg"
   xmlns:sodipodi="http://sodipodi.sourceforge.net/DTD/sodipodi-0.dtd"
   xmlns:inkscape="http://www.inkscape.org/namespaces/inkscape"
   id="Layer_1"
   style="enable-background:new 0 0 512 512;"
   version="1.1"
   viewBox="0 0 512 512"
   xml:space="preserve"
   sodipodi:docname="Instagram_Color-white.svg"
   inkscape:version="0.92.1 r15371"><metadata
     id="metadata48"><rdf:RDF><cc:Work
         rdf:about=""><dc:format>image/svg+xml</dc:format><dc:type
           rdf:resource="http://purl.org/dc/dcmitype/StillImage" /><dc:title></dc:title></cc:Work></rdf:RDF></metadata><defs
     id="defs46" /><sodipodi:namedview
     pagecolor="#ffffff"
     bordercolor="#666666"
     borderopacity="1"
     objecttolerance="10"
     gridtolerance="10"
     guidetolerance="10"
     inkscape:pageopacity="0"
     inkscape:pageshadow="2"
     inkscape:window-width="1920"
     inkscape:window-height="1003"
     id="namedview44"
     showgrid="false"
     inkscape:zoom="0.4609375"
     inkscape:cx="256"
     inkscape:cy="256"
     inkscape:window-x="-9"
     inkscape:window-y="-9"
     inkscape:window-maximized="1"
     inkscape:current-layer="Layer_1" /><style
     type="text/css"
     id="style2">
	.st0{fill:url(#XMLID_2_);}
	.st1{fill:url(#XMLID_3_);}
	.st2{fill:url(#XMLID_4_);}
</style><g
     id="XMLID_138_"
     style="fill:#ffffff;fill-opacity:1"
     transform="matrix(1.972415,0,0,1.9388835,-247.0355,-386.28047)"><radialGradient
       cx="201.7737"
       cy="461.35919"
       gradientUnits="userSpaceOnUse"
       id="XMLID_2_"
       r="261.1088"><stop
         offset="0"
         style="stop-color:#FFD776"
         id="stop4" /><stop
         offset="0.2463"
         style="stop-color:#F3A554"
         id="stop6" /><stop
         offset="0.3793"
         style="stop-color:#F15C3C"
         id="stop8" /><stop
         offset="0.5394"
         style="stop-color:#D94867"
         id="stop10" /><stop
         offset="0.6995"
         style="stop-color:#C32F87"
         id="stop12" /><stop
         offset="0.9122"
         style="stop-color:#7D63A7"
         id="stop14" /><stop
         offset="0.9852"
         style="stop-color:#5C6CB3"
         id="stop16" /></radialGradient><path
       class="st0"
       d="m 378.7,247.7 c -3.3,-8.5 -7.7,-15.7 -14.9,-22.9 -7.2,-7.2 -14.4,-11.6 -22.9,-14.9 -8.2,-3.2 -17.7,-5.4 -31.4,-6 -13.8,-0.6 -18.2,-0.8 -53.4,-0.8 -35.2,0 -39.6,0.1 -53.4,0.8 -13.8,0.6 -23.2,2.8 -31.4,6 -8.5,3.3 -15.7,7.7 -22.9,14.9 -7.2,7.2 -11.6,14.4 -14.9,22.9 -3.2,8.2 -5.4,17.7 -6,31.4 -0.6,13.8 -0.8,18.2 -0.8,53.4 0,35.2 0.1,39.6 0.8,53.4 0.6,13.8 2.8,23.2 6,31.4 3.3,8.5 7.7,15.7 14.9,22.9 7.2,7.2 14.4,11.6 22.9,14.9 8.2,3.2 17.7,5.4 31.4,6 13.8,0.6 18.2,0.8 53.4,0.8 35.2,0 39.6,-0.1 53.4,-0.8 13.8,-0.6 23.2,-2.8 31.4,-6 8.5,-3.3 15.7,-7.7 22.9,-14.9 7.2,-7.2 11.6,-14.4 14.9,-22.9 3.2,-8.2 5.4,-17.7 6,-31.4 0.6,-13.8 0.8,-18.2 0.8,-53.4 0,-35.2 -0.1,-39.6 -0.8,-53.4 -0.6,-13.8 -2.8,-23.2 -6,-31.4 z m -17.3,137.1 c -0.6,12.6 -2.7,19.5 -4.5,24 -2.3,6 -5.2,10.4 -9.7,14.9 -4.5,4.5 -8.8,7.3 -14.9,9.7 -4.6,1.8 -11.4,3.9 -24,4.5 -13.7,0.6 -17.7,0.8 -52.3,0.8 -34.6,0 -38.7,-0.1 -52.3,-0.8 -12.6,-0.6 -19.5,-2.7 -24,-4.5 -6,-2.3 -10.4,-5.2 -14.9,-9.7 -4.5,-4.5 -7.3,-8.8 -9.7,-14.9 -1.8,-4.6 -3.9,-11.4 -4.5,-24 -0.6,-13.7 -0.8,-17.8 -0.8,-52.3 0,-34.5 0.1,-38.7 0.8,-52.3 0.6,-12.6 2.7,-19.5 4.5,-24 2.3,-6 5.2,-10.4 9.7,-14.9 4.5,-4.5 8.8,-7.3 14.9,-9.7 4.6,-1.8 11.4,-3.9 24,-4.5 13.7,-0.6 17.8,-0.8 52.3,-0.8 34.5,0 38.7,0.1 52.3,0.8 12.6,0.6 19.5,2.7 24,4.5 6,2.3 10.4,5.2 14.9,9.7 4.5,4.5 7.3,8.8 9.7,14.9 1.8,4.6 3.9,11.4 4.5,24 0.6,13.7 0.8,17.8 0.8,52.3 0,34.5 -0.2,38.7 -0.8,52.3 z"
       id="XMLID_142_"
       style="fill:#ffffff;fill-opacity:1"
       inkscape:connector-curvature="0" /><radialGradient
       cx="228.1541"
       cy="398.6691"
       gradientUnits="userSpaceOnUse"
       id="XMLID_3_"
       r="134.08279"><stop
         offset="0"
         style="stop-color:#FFD776"
         id="stop20" /><stop
         offset="0.2463"
         style="stop-color:#F3A554"
         id="stop22" /><stop
         offset="0.3793"
         style="stop-color:#F15C3C"
         id="stop24" /><stop
         offset="0.607"
         style="stop-color:#D94867"
         id="stop26" /><stop
         offset="0.8346"
         style="stop-color:#C32F87"
         id="stop28" /><stop
         offset="0.9577"
         style="stop-color:#7D63A7"
         id="stop30" /><stop
         offset="1"
         style="stop-color:#5C6CB3"
         id="stop32" /></radialGradient><path
       class="st1"
       d="m 256,266 c -36.7,0 -66.5,29.8 -66.5,66.5 0,36.7 29.8,66.5 66.5,66.5 36.7,0 66.5,-29.8 66.5,-66.5 0,-36.7 -29.8,-66.5 -66.5,-66.5 z m 0,109.7 c -23.8,0 -43.2,-19.3 -43.2,-43.2 0,-23.8 19.3,-43.2 43.2,-43.2 23.9,0 43.2,19.3 43.2,43.2 0,23.8 -19.4,43.2 -43.2,43.2 z"
       id="XMLID_145_"
       style="fill:#ffffff;fill-opacity:1"
       inkscape:connector-curvature="0" /><radialGradient
       cx="318.62231"
       cy="278.83041"
       gradientUnits="userSpaceOnUse"
       id="XMLID_4_"
       r="31.333"><stop
         offset="0"
         style="stop-color:#5F6DB3"
         id="stop36" /><stop
         offset="1"
         style="stop-color:#5C6CB3"
         id="stop38" /></radialGradient><circle
       class="st2"
       cx="325.10001"
       cy="263.39999"
       id="XMLID_143_"
       r="15.5"
       style="fill:#ffffff;fill-opacity:1" /></g></svg>