<?xml version="1.0" encoding="UTF-8" standalone="no"?>
<!-- Created with Inkscape (http://www.inkscape.org/) -->

<svg
   xmlns:dc="http://purl.org/dc/elements/1.1/"
   xmlns:cc="http://creativecommons.org/ns#"
   xmlns:rdf="http://www.w3.org/1999/02/22-rdf-syntax-ns#"
   xmlns:svg="http://www.w3.org/2000/svg"
   xmlns="http://www.w3.org/2000/svg"
   xmlns:sodipodi="http://sodipodi.sourceforge.net/DTD/sodipodi-0.dtd"
   xmlns:inkscape="http://www.inkscape.org/namespaces/inkscape"
   version="1.1"
   id="svg2"
   xml:space="preserve"
   width="296.23868"
   height="296.18399"
   viewBox="0 0 296.23868 296.18399"
   sodipodi:docname="phone.svg"
   inkscape:version="0.92.1 r15371"><metadata
     id="metadata8"><rdf:RDF><cc:Work
         rdf:about=""><dc:format>image/svg+xml</dc:format><dc:type
           rdf:resource="http://purl.org/dc/dcmitype/StillImage" /><dc:title></dc:title></cc:Work></rdf:RDF></metadata><defs
     id="defs6"><clipPath
       clipPathUnits="userSpaceOnUse"
       id="clipPath18"><path
         d="M 0,222.138 H 222.179 V 0 H 0 Z"
         id="path16"
         inkscape:connector-curvature="0" /></clipPath></defs><sodipodi:namedview
     pagecolor="#ffffff"
     bordercolor="#666666"
     borderopacity="1"
     objecttolerance="10"
     gridtolerance="10"
     guidetolerance="10"
     inkscape:pageopacity="0"
     inkscape:pageshadow="2"
     inkscape:window-width="1920"
     inkscape:window-height="1003"
     id="namedview4"
     showgrid="false"
     inkscape:zoom="0.79680201"
     inkscape:cx="148.11934"
     inkscape:cy="148.092"
     inkscape:window-x="-9"
     inkscape:window-y="-9"
     inkscape:window-maximized="1"
     inkscape:current-layer="g10" /><g
     id="g10"
     inkscape:groupmode="layer"
     inkscape:label="2"
     transform="matrix(1.3333333,0,0,-1.3333333,0,296.184)"><g
       id="g12"
       style="fill:#ffffff;fill-opacity:1"><g
         id="g14"
         clip-path="url(#clipPath18)"
         style="fill:#ffffff;fill-opacity:1"><g
           id="g20"
           transform="translate(217.3236,55.4269)"
           style="fill:#ffffff;fill-opacity:1"><path
             d="m 0,0 -33.094,33.091 c -3.131,3.13 -7.293,4.854 -11.72,4.854 -0.562,0 -1.117,-0.028 -1.651,-0.083 -9.134,-0.923 -17.692,-4.434 -24.755,-10.156 -1.095,-0.89 -2.494,-1.383 -3.932,-1.383 -1.411,0 -2.79,0.48 -3.885,1.351 -20.286,16.33 -38.823,34.878 -55.116,55.146 -1.826,2.274 -1.82,5.567 0.014,7.834 5.719,7.063 9.227,15.615 10.145,24.731 0.499,4.971 -1.238,9.848 -4.771,13.381 l -33.093,33.093 c -3.131,3.129 -7.291,4.852 -11.712,4.852 -0.536,0 -1.079,-0.027 -1.615,-0.08 -10.707,-1.047 -20.811,-5.832 -28.453,-13.473 -14.684,-14.686 -17.931,-37.581 -7.895,-55.677 25.839,-47.144 87.986,-115.09 147.28,-147.228 6.815,-3.718 14.541,-5.68 22.36,-5.68 12.426,0 24.524,4.973 33.194,13.644 7.64,7.639 12.426,17.743 13.474,28.451 C 5.263,-8.383 3.522,-3.525 0,0"
             style="fill:#ffffff;fill-opacity:1;fill-rule:nonzero;stroke:none"
             id="path22"
             inkscape:connector-curvature="0" /></g></g></g></g></svg>