<?xml version="1.0" encoding="UTF-8" standalone="no"?>
<!-- Generator: Adobe Illustrator 19.0.0, SVG Export Plug-In . SVG Version: 6.00 Build 0)  -->

<svg
   xmlns:dc="http://purl.org/dc/elements/1.1/"
   xmlns:cc="http://creativecommons.org/ns#"
   xmlns:rdf="http://www.w3.org/1999/02/22-rdf-syntax-ns#"
   xmlns:svg="http://www.w3.org/2000/svg"
   xmlns="http://www.w3.org/2000/svg"
   xmlns:sodipodi="http://sodipodi.sourceforge.net/DTD/sodipodi-0.dtd"
   xmlns:inkscape="http://www.inkscape.org/namespaces/inkscape"
   version="1.1"
   id="Capa_1"
   x="0px"
   y="0px"
   viewBox="0 0 563.43 563.43"
   style="enable-background:new 0 0 563.43 563.43;"
   xml:space="preserve"
   sodipodi:docname="profile.svg"
   inkscape:version="0.92.1 r15371"><metadata
     id="metadata41"><rdf:RDF><cc:Work
         rdf:about=""><dc:format>image/svg+xml</dc:format><dc:type
           rdf:resource="http://purl.org/dc/dcmitype/StillImage" /></cc:Work></rdf:RDF></metadata><defs
     id="defs39" /><sodipodi:namedview
     pagecolor="#ffffff"
     bordercolor="#666666"
     borderopacity="1"
     objecttolerance="10"
     gridtolerance="10"
     guidetolerance="10"
     inkscape:pageopacity="0"
     inkscape:pageshadow="2"
     inkscape:window-width="1920"
     inkscape:window-height="1003"
     id="namedview37"
     showgrid="false"
     inkscape:zoom="0.41886304"
     inkscape:cx="281.715"
     inkscape:cy="281.715"
     inkscape:window-x="-9"
     inkscape:window-y="-9"
     inkscape:window-maximized="1"
     inkscape:current-layer="Capa_1" /><path
     d="M280.79,314.559c83.266,0,150.803-67.538,150.803-150.803S364.055,13.415,280.79,13.415S129.987,80.953,129.987,163.756  S197.524,314.559,280.79,314.559z M280.79,52.735c61.061,0,111.021,49.959,111.021,111.021S341.851,274.776,280.79,274.776  s-111.021-49.959-111.021-111.021S219.728,52.735,280.79,52.735z"
     id="path2"
     style="fill:#4b4b4b;fill-opacity:1" /><path
     d="M19.891,550.015h523.648c11.102,0,19.891-8.789,19.891-19.891c0-104.082-84.653-189.198-189.198-189.198H189.198  C85.116,340.926,0,425.579,0,530.124C0,541.226,8.789,550.015,19.891,550.015z M189.198,380.708h185.034  c75.864,0,138.313,56.436,148.028,129.524H41.17C50.884,437.607,113.334,380.708,189.198,380.708z"
     id="path4"
     style="fill:#4b4b4b;fill-opacity:1" /><g
     id="g6" /><g
     id="g8" /><g
     id="g10" /><g
     id="g12" /><g
     id="g14" /><g
     id="g16" /><g
     id="g18" /><g
     id="g20" /><g
     id="g22" /><g
     id="g24" /><g
     id="g26" /><g
     id="g28" /><g
     id="g30" /><g
     id="g32" /><g
     id="g34" /></svg>